<?xml version="1.0" encoding="UTF-8"?>
<svg xmlns="http://www.w3.org/2000/svg" xmlns:xlink="http://www.w3.org/1999/xlink" viewBox="0 0 800 800">
  <defs>
    <style>
      .cls-1, .cls-2, .cls-3, .cls-4 {
        fill: #fff;
      }

      .cls-2 {
        mix-blend-mode: soft-light;
        opacity: .5;
      }

      .cls-5, .cls-6 {
        fill: #97a6b7;
      }

      .cls-7 {
        isolation: isolate;
      }

      .cls-8 {
        fill: #d8dee8;
      }

      .cls-6 {
        mix-blend-mode: multiply;
        opacity: .3;
      }

      .cls-9 {
        fill: #c19f69;
      }

      .cls-3 {
        opacity: .74;
      }

      .cls-10 {
        fill: url(#linear-gradient);
      }

      .cls-11 {
        fill: #e8d6bc;
      }

      .cls-4 {
        opacity: .51;
      }
    </style>
    <linearGradient id="linear-gradient" x1="364.25" y1="131.96" x2="599.79" y2="131.96" gradientUnits="userSpaceOnUse">
      <stop offset="0" stop-color="#444b8c"/>
      <stop offset="1" stop-color="#26264f"/>
    </linearGradient>
  </defs>
  <g class="cls-7">
    <g id="Calque_1" data-name="Calque 1">
      <path class="cls-11" d="M790.82,539.93c-32.83,87.36-100.91,133.2-126.97,148.67-134.26,79.71-335.8,55.34-438.83-72.55-65.97-81.89-66.83-175.62-66.16-202.31,3.65-144.93,110.41-304.61,267.83-327.49,174.27-25.33,293.94,127.99,305.55,143.4,14.06,18.65,115.72,158.2,58.57,310.29Z"/>
      <path class="cls-5" d="M685.08,147.09l-437.46-25.61c-10.08-.5-19.15,10.63-19.15,19.97V711.45c0,12.96,13.08,15.56,23.15,14.52l433.45-44.79c7.92-.82,14.31-8.15,14.31-16.38V162.7c0-8.23-6.39-15.22-14.31-15.61Z"/>
      <path class="cls-8" d="M692.28,142.56l-438.32-21.82c-10.08-.5-18.28,6.72-18.28,16.14V711.33c0,9.41,8.21,16.19,18.28,15.14l438.32-45.65c7.92-.82,14.31-8.21,14.31-16.51V158.29c0-8.29-6.39-15.33-14.31-15.73Z"/>
      <path class="cls-3" d="M253.95,718.68c-5.43,.56-9.87-3.12-9.87-8.19V137.27c0-5.07,4.43-8.99,9.87-8.73l438.32,20.95c4.28,.2,7.75,4.02,7.75,8.51v506.97c0,4.49-3.47,8.49-7.75,8.93l-438.32,44.78Z"/>
      <polygon class="cls-9" points="664.03 660.3 289.13 696.85 289.13 168.01 664.03 182.29 664.03 660.3"/>
      <path class="cls-6" d="M514.08,184.88l-149.83,1.9,3.36-34.19c.25-4.44,3.43-8.09,7.61-8.74l25.37-3.95c2.99-.46,5.56-2.46,6.87-5.33l2.75-6.05,66.37,4.15,37.5,52.21Z"/>
      <path class="cls-10" d="M594.09,162.7c-.71-3.87-3.77-6.58-7.63-6.76l-23.94-1.09c-10.87-.49-18.83-9.43-18.43-20.74l.92-26.22c.17-4.85-3.25-8.73-7.95-9.02l-7.87-.48c-6-.36-9.99-5.71-9.15-11.9,1.47-10.81-5.85-20.14-16.46-20.87-10.69-.74-20.67,7.53-22.27,18.48-.24,1.63-.78,3.23-1.66,4.67-2.47,4.01-6.8,6.22-11.04,5.96l-8.11-.49c-4.92-.3-9.59,3.19-10.83,8.11l-6.75,26.61c-2.92,11.51-13.92,19.83-25.61,19.3l-26.26-1.19c-4.3-.2-8.52,2.34-10.5,6.32l-15.83,31.78c-1.3,2.6,.3,5.41,3.12,5.51l227.75,7.65c2.49,.08,4.61-2.43,4.15-4.93l-5.64-30.71Zm-93.74-74.38c-3.14-.2-5.31-2.96-4.86-6.16,.46-3.21,3.37-5.64,6.51-5.43,3.13,.21,5.3,2.97,4.84,6.16-.45,3.2-3.36,5.63-6.49,5.43Z"/>
      <path class="cls-5" d="M595.44,163.41c-.71-3.87-3.77-6.58-7.63-6.76l-23.94-1.09c-10.87-.49-18.83-9.43-18.43-20.74l.92-26.22c.17-4.85-3.25-8.73-7.95-9.02l-7.87-.48c-6-.36-9.99-5.71-9.15-11.9,1.47-10.81-5.85-20.14-16.46-20.87-10.69-.74-20.67,7.53-22.27,18.48-.24,1.63-.78,3.24-1.66,4.67-2.47,4.01-6.8,6.22-11.04,5.96l-8.11-.49c-4.92-.3-9.59,3.19-10.83,8.11l-6.75,26.61c-2.92,11.51-13.92,19.83-25.61,19.3l-26.26-1.19c-4.3-.2-8.52,2.34-10.5,6.32l-15.83,31.78c-1.3,2.6,.3,5.41,3.12,5.51l227.75,7.65c2.49,.08,4.61-2.43,4.15-4.93l-5.64-30.71Zm-93.74-74.38c-3.14-.2-5.31-2.96-4.86-6.16,.46-3.21,3.37-5.64,6.51-5.43,3.13,.21,5.3,2.97,4.84,6.16-.45,3.2-3.36,5.63-6.49,5.43Z"/>
      <path class="cls-2" d="M556.46,178.01c-20.32-12.69-35.9-3.69-48.57-18.01-13.55-15.32-4.41-35.49-18.44-45.01-8.98-6.09-16.99-.72-27.43-2.37-3.82-.6-7.9-2.14-12.14-5.14l-5.63,22.2c-2.92,11.51-13.92,19.83-25.61,19.3l-26.26-1.19c-4.3-.2-8.52,2.34-10.5,6.32l-15.83,31.78c-1.3,2.6,.3,5.41,3.12,5.51l206.98,6.96c-5.21-8.38-11.69-15.33-19.7-20.34Z"/>
      <g>
        <g>
          <g>
            <path class="cls-1" d="M486.09,516.49c-.41,0-.8-.16-1.09-.44-.3-.3-.47-.7-.47-1.12v-229.29c0-.42,.17-.82,.47-1.12,.3-.29,.67-.46,1.12-.45l161.13,2.14c.86,.01,1.55,.71,1.55,1.57v222.68c0,.85-.68,1.54-1.52,1.57l-161.13,4.48s-.03,0-.04,0Zm1.57-229.27v226.09l158-4.39v-219.61l-158-2.09Z"/>
            <g>
              <path class="cls-1" d="M605.04,389.38s2-6.72,6.65-7.41c4.64-.69,8.61-1.37,9.94,3.3,1.32,4.68,0,10.04-8.61,10.76-8.64,.73-7.97-6.66-7.97-6.66Z"/>
              <path class="cls-1" d="M613.68,366.55s4.64-2.01,5.96,2c1.32,4.01,1.32,8.7-3.31,11.39-4.64,2.7-9.96,2.05-11.29-3.98-1.33-6.04,4.65-8.73,8.64-9.41Z"/>
              <path class="cls-1" d="M601.72,363.21c-1.31-2.2-2.67-8.06,1.33-10.74,5.22-3.5,7.98-4.68,10.63-2,2.65,2.68,5.65,10.32,1.33,14.07-4.64,4.03-10.34,3.61-13.29-1.33Z"/>
              <path class="cls-1" d="M602.28,350.29c-1.11,.16-2.27-.14-3.12-.88-.6-.52-1.18-1.27-1.44-2.33-.67-2.69,4-7.38,7.99-8.7,3.99-1.33,8.55,3.32,5.32,7.39-2.44,3.08-4.32,3.89-8.75,4.51Z"/>
              <path class="cls-1" d="M593.71,339.68s-2.01-4.72,.67-8.07c2.67-3.35,4.67-5.35,8-3.99,3.33,1.36,6.65,6.07,2.66,9.41-4,3.34-8.66,6.01-11.33,2.64Z"/>
              <path class="cls-1" d="M589.41,331c-.74-.19-1.33-.72-1.61-1.43-.6-1.5-1.25-4.35,.54-7.49,2.63-4.61,3.94-5.92,7.22-3.91,3.28,2,4.58,3.99,3.93,5.96-.65,1.97-3.93,5.25-5.9,6.56-1.26,.84-3.05,.59-4.18,.31Z"/>
              <path class="cls-1" d="M580.58,312.74s1.4-3.49,5.58-.65c4.18,2.84,5.57,3.55,4.18,5.64-1.39,2.09-4.18,6.98-8.37,6.25-4.19-.73-4.19-7.05-1.4-11.23Z"/>
              <path class="cls-1" d="M571.57,320.7c-2.02-.01-2.7-1.37-3.37-4.08-.67-2.71-.67-8.11,0-9.46,.67-1.34,3.37-.64,6.06,.06,2.69,.7,5.38,1.4,5.38,2.75s-1.21,10.78-8.07,10.73Z"/>
              <path class="cls-1" d="M530.12,389.79s-2.05-6.79-6.85-7.45c-4.8-.66-8.92-1.33-10.3,3.45-1.38,4.78,0,10.24,8.93,10.86,8.9,.62,8.22-6.86,8.22-6.86Z"/>
              <path class="cls-1" d="M521.22,366.67s-4.81-2.04-6.18,2.05c-1.38,4.1-1.38,8.87,3.44,11.58,4.8,2.71,10.28,2,11.65-4.12,1.37-6.12-4.79-8.84-8.9-9.51Z"/>
              <path class="cls-1" d="M533.54,363.25c1.35-2.23,2.73-8.16-1.37-10.88-5.37-3.57-8.21-4.78-10.95-2.06-2.74,2.72-5.86,10.49-1.37,14.31,4.8,4.08,10.66,3.64,13.69-1.37Z"/>
              <path class="cls-1" d="M532.96,350.17c1.14,.16,2.32-.13,3.2-.87,.61-.52,1.2-1.27,1.47-2.35,.68-2.72-4.09-7.49-8.19-8.86-4.11-1.38-8.82,3.31-5.48,7.47,2.52,3.13,4.46,3.97,9,4.62Z"/>
              <path class="cls-1" d="M541.72,339.49s2.04-4.74-.68-8.15c-2.73-3.41-4.77-5.46-8.18-4.12-3.42,1.34-6.84,6.09-2.73,9.51,4.1,3.42,8.87,6.15,11.6,2.76Z"/>
              <path class="cls-1" d="M546.1,330.77c.75-.18,1.35-.72,1.64-1.43,.61-1.5,1.27-4.36-.55-7.55-2.67-4.68-4.01-6.02-7.35-4.05-3.35,1.98-4.69,3.97-4.02,5.97,.67,2.01,4.02,5.36,6.02,6.7,1.28,.86,3.11,.63,4.26,.36Z"/>
              <path class="cls-1" d="M555.03,312.52s-1.41-3.54-5.65-.75c-4.24,2.79-5.66,3.48-4.24,5.61,1.41,2.13,4.24,7.09,8.48,6.41,4.23-.68,4.23-7.02,1.41-11.27Z"/>
              <path class="cls-1" d="M564.1,320.64c2.03,.01,2.7-1.33,3.37-4.03,.67-2.7,.67-8.1,0-9.46-.67-1.36-3.37-.71-6.08-.06-2.71,.65-5.41,1.3-5.41,2.66s1.22,10.84,8.12,10.89Z"/>
            </g>
          </g>
          <polygon class="cls-4" points="318.56 325.06 465.67 325.95 465.67 319.61 318.56 318.55 318.56 325.06"/>
          <polygon class="cls-4" points="318.56 339.76 465.67 340.27 465.67 333.93 318.56 333.25 318.56 339.76"/>
          <polygon class="cls-4" points="318.56 354.46 465.67 354.59 465.67 348.25 318.56 347.95 318.56 354.46"/>
          <polygon class="cls-4" points="318.56 369.16 465.67 368.92 465.67 362.58 318.56 362.65 318.56 369.16"/>
          <polygon class="cls-4" points="318.56 430.17 465.67 428.37 465.67 422.03 318.56 423.66 318.56 430.17"/>
          <polygon class="cls-4" points="318.56 444.87 465.67 442.69 465.67 436.35 318.56 438.36 318.56 444.87"/>
          <polygon class="cls-4" points="318.56 459.57 465.67 457.01 465.67 450.67 318.56 453.06 318.56 459.57"/>
          <polygon class="cls-4" points="318.56 474.27 465.67 471.34 465.67 465 318.56 467.76 318.56 474.27"/>
        </g>
        <polygon class="cls-4" points="651.64 535.08 313.29 548.28 313.29 536.75 651.64 524.55 651.64 535.08"/>
      </g>
    </g>
  </g>
</svg>