<?xml version="1.0" encoding="UTF-8"?>
<svg xmlns="http://www.w3.org/2000/svg" xmlns:xlink="http://www.w3.org/1999/xlink" viewBox="0 0 800 800">
  <defs>
    <style>
      .cls-1 {
        fill: url(#linear-gradient-2);
      }

      .cls-2, .cls-3, .cls-4, .cls-5 {
        fill: #fff;
      }

      .cls-3 {
        mix-blend-mode: soft-light;
        opacity: .5;
      }

      .cls-6, .cls-7 {
        fill: #97a6b7;
      }

      .cls-8 {
        fill: url(#linear-gradient-6);
      }

      .cls-9 {
        isolation: isolate;
      }

      .cls-10 {
        fill: #d8dee8;
      }

      .cls-7 {
        mix-blend-mode: multiply;
        opacity: .3;
      }

      .cls-11 {
        fill: url(#linear-gradient-5);
      }

      .cls-12 {
        fill: #c19f69;
      }

      .cls-13 {
        fill: url(#linear-gradient-7);
      }

      .cls-4 {
        opacity: .74;
      }

      .cls-14 {
        fill: url(#linear-gradient-9);
      }

      .cls-15 {
        fill: url(#linear-gradient-3);
      }

      .cls-16 {
        fill: url(#linear-gradient);
      }

      .cls-17 {
        fill: url(#linear-gradient-4);
      }

      .cls-18 {
        fill: url(#linear-gradient-8);
      }

      .cls-5 {
        opacity: .51;
      }
    </style>
    <linearGradient id="linear-gradient" x1="81.41" y1="393.7" x2="730.75" y2="393.7" gradientUnits="userSpaceOnUse">
      <stop offset="0" stop-color="#892e00"/>
      <stop offset="0" stop-color="#8d3203"/>
      <stop offset=".06" stop-color="#b9612b"/>
      <stop offset=".12" stop-color="#d98448"/>
      <stop offset=".16" stop-color="#ec9959"/>
      <stop offset=".19" stop-color="#f4a160"/>
      <stop offset=".21" stop-color="#f6ab6b"/>
      <stop offset=".27" stop-color="#fbbe80"/>
      <stop offset=".33" stop-color="#feca8c"/>
      <stop offset=".39" stop-color="#ffce91"/>
      <stop offset=".47" stop-color="#fecc8e"/>
      <stop offset=".51" stop-color="#fcc587"/>
      <stop offset=".53" stop-color="#f9ba7b"/>
      <stop offset=".55" stop-color="#f5aa69"/>
      <stop offset=".57" stop-color="#f09553"/>
      <stop offset=".57" stop-color="#ef924f"/>
      <stop offset=".58" stop-color="#e98c4a"/>
      <stop offset=".69" stop-color="#a44815"/>
      <stop offset=".75" stop-color="#892e00"/>
      <stop offset=".75" stop-color="#8a2e00"/>
      <stop offset=".82" stop-color="#963604"/>
      <stop offset=".85" stop-color="#9b3b08"/>
      <stop offset=".89" stop-color="#a94a14"/>
      <stop offset=".94" stop-color="#c26329"/>
      <stop offset=".99" stop-color="#e38645"/>
      <stop offset="1" stop-color="#ef924f"/>
    </linearGradient>
    <linearGradient id="linear-gradient-2" x1="211.76" y1="417.21" x2="586.67" y2="417.21" xlink:href="#linear-gradient"/>
    <linearGradient id="linear-gradient-3" x1="286.89" y1="116.74" x2="522.43" y2="116.74" gradientUnits="userSpaceOnUse">
      <stop offset="0" stop-color="#444b8c"/>
      <stop offset="1" stop-color="#26264f"/>
    </linearGradient>
    <linearGradient id="linear-gradient-4" x1="375.35" y1="534.54" x2="341.67" y2="568.21" gradientUnits="userSpaceOnUse">
      <stop offset="0" stop-color="#aa80f9"/>
      <stop offset="1" stop-color="#6165d7"/>
    </linearGradient>
    <linearGradient id="linear-gradient-5" x1="541.96" y1="530.47" x2="509.97" y2="562.46" xlink:href="#linear-gradient-4"/>
    <linearGradient id="linear-gradient-6" x1="690.67" y1="526.81" x2="660.16" y2="557.32" xlink:href="#linear-gradient-4"/>
    <linearGradient id="linear-gradient-7" x1="324.89" y1="565.67" x2="370.92" y2="565.67" xlink:href="#linear-gradient"/>
    <linearGradient id="linear-gradient-8" x1="494.64" y1="560.04" x2="537.54" y2="560.04" xlink:href="#linear-gradient"/>
    <linearGradient id="linear-gradient-9" x1="646.06" y1="555.02" x2="686.26" y2="555.02" xlink:href="#linear-gradient"/>
  </defs>
  <g class="cls-9">
    <g id="Calque_1" data-name="Calque 1">
      <g>
        <path class="cls-16" d="M713.46,524.71c-32.83,87.36-100.91,133.2-126.97,148.67-134.26,79.71-335.8,55.34-438.83-72.55-65.97-81.89-66.83-175.62-66.16-202.31,3.65-144.93,110.41-304.61,267.83-327.49,174.27-25.33,293.94,127.99,305.55,143.4,14.06,18.65,115.72,158.2,58.57,310.29Z"/>
        <g>
          <g>
            <path class="cls-6" d="M607.72,131.88l-437.46-25.61c-10.08-.5-19.15,10.63-19.15,19.97V696.23c0,12.96,13.08,15.56,23.15,14.52l433.45-44.79c7.92-.82,14.31-8.15,14.31-16.38V147.48c0-8.23-6.39-15.22-14.31-15.61Z"/>
            <path class="cls-10" d="M614.92,127.35l-438.32-21.82c-10.08-.5-18.28,6.72-18.28,16.14V696.11c0,9.41,8.21,16.19,18.28,15.14l438.32-45.65c7.92-.82,14.31-8.21,14.31-16.51V143.08c0-8.29-6.39-15.33-14.31-15.73Z"/>
            <path class="cls-4" d="M176.59,703.46c-5.43,.56-9.87-3.12-9.87-8.19V122.05c0-5.07,4.43-8.99,9.87-8.73l438.32,20.95c4.28,.2,7.75,4.02,7.75,8.51v506.97c0,4.49-3.47,8.49-7.75,8.93l-438.32,44.78Z"/>
            <polygon class="cls-1" points="586.67 645.09 211.76 681.64 211.76 152.79 586.67 167.08 586.67 645.09"/>
            <path class="cls-7" d="M436.72,169.66l-149.83,1.9,3.36-34.19c.25-4.44,3.43-8.09,7.61-8.74l25.37-3.95c2.99-.46,5.56-2.46,6.87-5.33l2.75-6.05,66.37,4.15,37.5,52.21Z"/>
            <path class="cls-15" d="M516.73,147.48c-.71-3.87-3.77-6.58-7.63-6.76l-23.94-1.09c-10.87-.49-18.83-9.43-18.43-20.74l.92-26.22c.17-4.85-3.25-8.73-7.95-9.02l-7.87-.48c-6-.36-9.99-5.71-9.15-11.9,1.47-10.81-5.85-20.14-16.46-20.87-10.69-.74-20.67,7.53-22.27,18.48-.24,1.63-.78,3.23-1.66,4.67-2.47,4.01-6.8,6.22-11.04,5.96l-8.11-.49c-4.92-.3-9.59,3.19-10.83,8.11l-6.75,26.61c-2.92,11.51-13.92,19.83-25.61,19.3l-26.26-1.19c-4.3-.2-8.52,2.34-10.5,6.32l-15.83,31.78c-1.3,2.6,.3,5.41,3.12,5.51l227.75,7.65c2.49,.08,4.61-2.43,4.15-4.93l-5.64-30.71Zm-93.74-74.38c-3.14-.2-5.31-2.96-4.86-6.16,.46-3.21,3.37-5.64,6.51-5.43,3.13,.21,5.3,2.97,4.84,6.16-.45,3.2-3.36,5.63-6.49,5.43Z"/>
            <path class="cls-6" d="M518.08,148.19c-.71-3.87-3.77-6.58-7.63-6.76l-23.94-1.09c-10.87-.49-18.83-9.43-18.43-20.74l.92-26.22c.17-4.85-3.25-8.73-7.95-9.02l-7.87-.48c-6-.36-9.99-5.71-9.15-11.9,1.47-10.81-5.85-20.14-16.46-20.87-10.69-.74-20.67,7.53-22.27,18.48-.24,1.63-.78,3.24-1.66,4.67-2.47,4.01-6.8,6.22-11.04,5.96l-8.11-.49c-4.92-.3-9.59,3.19-10.83,8.11l-6.75,26.61c-2.92,11.51-13.92,19.83-25.61,19.3l-26.26-1.19c-4.3-.2-8.52,2.34-10.5,6.32l-15.83,31.78c-1.3,2.6,.3,5.41,3.12,5.51l227.75,7.65c2.49,.08,4.61-2.43,4.15-4.93l-5.64-30.71Zm-93.74-74.38c-3.14-.2-5.31-2.96-4.86-6.16,.46-3.21,3.37-5.64,6.51-5.43,3.13,.21,5.3,2.97,4.84,6.16-.45,3.2-3.36,5.63-6.49,5.43Z"/>
            <path class="cls-3" d="M479.1,162.8c-20.32-12.69-35.9-3.69-48.57-18.01-13.55-15.32-4.41-35.49-18.44-45.01-8.98-6.09-16.99-.72-27.43-2.37-3.82-.6-7.9-2.14-12.14-5.14l-5.63,22.2c-2.92,11.51-13.92,19.83-25.61,19.3l-26.26-1.19c-4.3-.2-8.52,2.34-10.5,6.32l-15.83,31.78c-1.3,2.6,.3,5.41,3.12,5.51l206.98,6.96c-5.21-8.38-11.69-15.33-19.7-20.34Z"/>
          </g>
          <g>
            <g>
              <g>
                <path class="cls-2" d="M403.53,434.19c-.41,0-.8-.16-1.09-.44-.3-.3-.47-.7-.47-1.12V203.33c0-.42,.17-.82,.47-1.12,.3-.29,.67-.46,1.12-.45l161.13,2.14c.86,.01,1.55,.71,1.55,1.57v222.68c0,.85-.68,1.54-1.52,1.57l-161.13,4.48s-.03,0-.04,0Zm1.57-229.27v226.09l158-4.39V207.02l-158-2.09Z"/>
                <g>
                  <path class="cls-2" d="M522.49,307.08s2-6.72,6.65-7.41c4.64-.69,8.61-1.37,9.94,3.3,1.32,4.68,0,10.04-8.61,10.76-8.64,.73-7.97-6.66-7.97-6.66Z"/>
                  <path class="cls-2" d="M531.12,284.25s4.64-2.01,5.96,2c1.32,4.01,1.32,8.7-3.31,11.39-4.64,2.7-9.96,2.05-11.29-3.98-1.33-6.04,4.65-8.73,8.64-9.41Z"/>
                  <path class="cls-2" d="M519.16,280.91c-1.31-2.2-2.67-8.06,1.33-10.74,5.22-3.5,7.98-4.68,10.63-2,2.65,2.68,5.65,10.32,1.33,14.07-4.64,4.03-10.34,3.61-13.29-1.33Z"/>
                  <path class="cls-2" d="M519.72,267.99c-1.11,.16-2.27-.14-3.12-.88-.6-.52-1.18-1.27-1.44-2.33-.67-2.69,4-7.38,7.99-8.7,3.99-1.33,8.55,3.32,5.32,7.39-2.44,3.08-4.32,3.89-8.75,4.51Z"/>
                  <path class="cls-2" d="M511.15,257.38s-2.01-4.72,.67-8.07c2.67-3.35,4.67-5.35,8-3.99,3.33,1.36,6.65,6.07,2.66,9.41-4,3.34-8.66,6.01-11.33,2.64Z"/>
                  <path class="cls-2" d="M506.85,248.69c-.74-.19-1.33-.72-1.61-1.43-.6-1.5-1.25-4.35,.54-7.49,2.63-4.61,3.94-5.92,7.22-3.91,3.28,2,4.58,3.99,3.93,5.96-.65,1.97-3.93,5.25-5.9,6.56-1.26,.84-3.05,.59-4.18,.31Z"/>
                  <path class="cls-2" d="M498.03,230.44s1.4-3.49,5.58-.65c4.18,2.84,5.57,3.55,4.18,5.64-1.39,2.09-4.18,6.98-8.37,6.25-4.19-.73-4.19-7.05-1.4-11.23Z"/>
                  <path class="cls-2" d="M489.01,238.39c-2.02-.01-2.7-1.37-3.37-4.08-.67-2.71-.67-8.11,0-9.46,.67-1.34,3.37-.64,6.06,.06,2.69,.7,5.38,1.4,5.38,2.75s-1.21,10.78-8.07,10.73Z"/>
                  <path class="cls-2" d="M447.56,307.48s-2.05-6.79-6.85-7.45c-4.8-.66-8.92-1.33-10.3,3.45-1.38,4.78,0,10.24,8.93,10.86,8.9,.62,8.22-6.86,8.22-6.86Z"/>
                  <path class="cls-2" d="M438.66,284.37s-4.81-2.04-6.18,2.05c-1.38,4.1-1.38,8.87,3.44,11.58,4.8,2.71,10.28,2,11.65-4.12,1.37-6.12-4.79-8.84-8.9-9.51Z"/>
                  <path class="cls-2" d="M450.98,280.95c1.35-2.23,2.73-8.16-1.37-10.88-5.37-3.57-8.21-4.78-10.95-2.06-2.74,2.72-5.86,10.49-1.37,14.31,4.8,4.08,10.66,3.64,13.69-1.37Z"/>
                  <path class="cls-2" d="M450.4,267.87c1.14,.16,2.32-.13,3.2-.87,.61-.52,1.2-1.27,1.47-2.35,.68-2.72-4.09-7.49-8.19-8.86-4.11-1.38-8.82,3.31-5.48,7.47,2.52,3.13,4.46,3.97,9,4.62Z"/>
                  <path class="cls-2" d="M459.16,257.19s2.04-4.74-.68-8.15c-2.73-3.41-4.77-5.46-8.18-4.12-3.42,1.34-6.84,6.09-2.73,9.51,4.1,3.42,8.87,6.15,11.6,2.76Z"/>
                  <path class="cls-2" d="M463.54,248.47c.75-.18,1.35-.72,1.64-1.43,.61-1.5,1.27-4.36-.55-7.55-2.67-4.68-4.01-6.02-7.35-4.05-3.35,1.98-4.69,3.97-4.02,5.97,.67,2.01,4.02,5.36,6.02,6.7,1.28,.86,3.11,.63,4.26,.36Z"/>
                  <path class="cls-2" d="M472.47,230.22s-1.41-3.54-5.65-.75c-4.24,2.79-5.66,3.48-4.24,5.61,1.41,2.13,4.24,7.09,8.48,6.41,4.23-.68,4.23-7.02,1.41-11.27Z"/>
                  <path class="cls-2" d="M481.54,238.34c2.03,.01,2.7-1.33,3.37-4.03,.67-2.7,.67-8.1,0-9.46-.67-1.36-3.37-.71-6.08-.06-2.71,.65-5.41,1.3-5.41,2.66s1.22,10.84,8.12,10.89Z"/>
                  <path class="cls-2" d="M522.49,327.15s2,6.69,6.65,7.31c4.64,.62,8.61,1.25,9.94-3.45,1.32-4.69,0-10.04-8.61-10.64-8.64-.6-7.97,6.77-7.97,6.77Z"/>
                  <path class="cls-2" d="M531.12,349.85s4.64,1.95,5.96-2.09c1.32-4.03,1.32-8.72-3.31-11.34-4.64-2.63-9.96-1.9-11.29,4.15-1.33,6.06,4.65,8.66,8.64,9.28Z"/>
                  <path class="cls-2" d="M519.16,353.37c-1.31,2.22-2.67,8.1,1.33,10.72,5.22,3.43,7.98,4.57,10.63,1.84,2.65-2.72,5.65-10.4,1.33-14.09-4.64-3.96-10.34-3.46-13.29,1.52Z"/>
                  <path class="cls-2" d="M519.72,366.28c-1.11-.14-2.27,.17-3.12,.92-.6,.53-1.18,1.28-1.44,2.35-.67,2.7,4,7.32,7.99,8.59,3.99,1.27,8.55-3.44,5.32-7.47-2.44-3.04-4.32-3.83-8.75-4.39Z"/>
                  <path class="cls-2" d="M511.15,377.01s-2.01,4.75,.67,8.06c2.67,3.31,4.67,5.28,8,3.87,3.33-1.41,6.65-6.17,2.66-9.45-4-3.28-8.66-5.89-11.33-2.48Z"/>
                  <path class="cls-2" d="M506.85,385.76c-.74,.2-1.33,.74-1.61,1.46-.6,1.5-1.25,4.37,.54,7.48,2.63,4.57,3.94,5.86,7.22,3.81,3.28-2.05,4.58-4.06,3.93-6.02-.65-1.96-3.93-5.2-5.9-6.48-1.26-.82-3.05-.55-4.18-.25Z"/>
                  <path class="cls-2" d="M498.03,404.14s1.4,3.47,5.58,.57c4.18-2.9,5.57-3.63,4.18-5.7-1.39-2.07-4.18-6.91-8.37-6.13-4.19,.79-4.19,7.11-1.4,11.25Z"/>
                  <path class="cls-2" d="M489.01,396.32c-2.02,.04-2.7,1.41-3.37,4.13-.67,2.72-.67,8.12,0,9.46,.67,1.33,3.37,.59,6.06-.15,2.69-.74,5.38-1.48,5.38-2.83s-1.21-10.76-8.07-10.61Z"/>
                  <path class="cls-2" d="M447.56,327.83s-2.05,6.82-6.85,7.55c-4.8,.73-8.92,1.46-10.3-3.3-1.38-4.76,0-10.24,8.93-10.99,8.9-.75,8.22,6.74,8.22,6.74Z"/>
                  <path class="cls-2" d="M438.66,351.08s-4.81,2.11-6.18-1.96c-1.38-4.08-1.38-8.85,3.44-11.63,4.8-2.78,10.28-2.15,11.65,3.96,1.37,6.1-4.79,8.91-8.9,9.64Z"/>
                  <path class="cls-2" d="M450.98,354.31c1.35,2.21,2.73,8.12-1.37,10.9-5.37,3.65-8.21,4.9-10.95,2.22-2.74-2.68-5.86-10.41-1.37-14.29,4.8-4.15,10.66-3.8,13.69,1.17Z"/>
                  <path class="cls-2" d="M450.4,367.4c1.14-.18,2.32,.1,3.2,.83,.61,.51,1.2,1.26,1.47,2.33,.68,2.71-4.09,7.55-8.19,8.98-4.11,1.44-8.82-3.18-5.48-7.39,2.52-3.17,4.46-4.03,9-4.75Z"/>
                  <path class="cls-2" d="M459.16,377.96s2.04,4.71-.68,8.16c-2.73,3.45-4.77,5.53-8.18,4.24-3.42-1.29-6.84-5.99-2.73-9.47,4.1-3.48,8.87-6.28,11.6-2.93Z"/>
                  <path class="cls-2" d="M463.54,386.61c.75,.17,1.35,.7,1.64,1.4,.61,1.49,1.27,4.35-.55,7.56-2.67,4.72-4.01,6.08-7.35,4.16-3.35-1.93-4.69-3.9-4.02-5.92,.67-2.02,4.02-5.42,6.02-6.79,1.28-.88,3.11-.68,4.26-.42Z"/>
                  <path class="cls-2" d="M472.47,404.73s-1.41,3.56-5.65,.84c-4.24-2.73-5.66-3.4-4.24-5.55,1.41-2.15,4.24-7.15,8.48-6.53,4.23,.62,4.23,6.95,1.41,11.25Z"/>
                  <path class="cls-2" d="M481.54,396.48c2.03-.04,2.7,1.29,3.37,3.98,.67,2.69,.67,8.09,0,9.46-.67,1.37-3.37,.76-6.08,.15-2.71-.61-5.41-1.22-5.41-2.58s1.22-10.86,8.12-11.01Z"/>
                </g>
              </g>
              <polygon class="cls-5" points="236 242.76 383.11 243.64 383.11 237.3 236 236.25 236 242.76"/>
              <polygon class="cls-5" points="236 257.46 383.11 257.97 383.11 251.63 236 250.95 236 257.46"/>
              <polygon class="cls-5" points="236 272.16 383.11 272.29 383.11 265.95 236 265.65 236 272.16"/>
              <polygon class="cls-5" points="236 286.86 383.11 286.62 383.11 280.28 236 280.35 236 286.86"/>
              <polygon class="cls-5" points="236 347.87 383.11 346.06 383.11 339.72 236 341.36 236 347.87"/>
              <polygon class="cls-5" points="236 362.57 383.11 360.39 383.11 354.05 236 356.06 236 362.57"/>
              <polygon class="cls-5" points="236 377.27 383.11 374.71 383.11 368.37 236 370.76 236 377.27"/>
              <polygon class="cls-5" points="236 391.97 383.11 389.04 383.11 382.7 236 385.46 236 391.97"/>
            </g>
            <polygon class="cls-5" points="569.08 452.78 230.73 465.97 230.73 454.45 569.08 442.25 569.08 452.78"/>
          </g>
        </g>
        <g>
          <g>
            <path class="cls-2" d="M634.14,482.12c-7.46-7.25-23.81-15.39-37.73-13.74-24.86,2.94-48.38,19.14-38.84,76.8,9.32,56.29,14.93,134.46,42.61,134.46,16.42,0,23.08-14.23,26.41-27.24,3.33-13,8.21-33.61,16.42-33.86,8.21-.25,12.43,20.09,15.09,32.6,2.66,12.51,6.69,28.53,19.32,27.27,12.63-1.26,27.95-29.69,36.16-75.58,8.21-45.88,23.75-117.77-15.09-130.53-29.29-9.62-40.61,32.88-64.36,9.81Z"/>
            <path class="cls-10" d="M657.11,494.27c8.68-1.44,12.16-10.55,20.42-18.65,1.11-1.09,2.34-2.19,3.69-3.27-16.98,5.81-27.75,25.97-44.89,11.74,5.73,6,13.11,11.45,20.79,10.18Z"/>
            <path class="cls-10" d="M679.86,662.44c-15.92-5.35-8.72-53.92-29.29-66.22-15.11-9.03-29.83,7.01-42.61-4.17-6.32-5.52-4.55-11.04-10.32-32.02-10.33-37.58-23.02-45.66-18.09-61.22,3.85-12.14,14.59-18.28,18.64-20.61,7.51-4.31,15.18-5.48,21.87-5.26-7.32-3.33-15.87-5.47-23.65-4.55-24.86,2.94-48.38,19.14-38.84,76.8,9.32,56.29,14.93,134.46,42.61,134.46,16.42,0,23.08-14.23,26.41-27.24,3.33-13,8.21-33.61,16.42-33.86,8.21-.25,12.43,20.09,15.09,32.6,2.66,12.51,6.69,28.53,19.32,27.27,7.86-.79,16.24-10.31,23.66-29.86-5.16,13.59-16.34,15.52-21.24,13.88Z"/>
          </g>
          <g>
            <path class="cls-2" d="M479.17,489.54c-8-7.77-25.53-16.5-40.45-14.73-26.65,3.16-51.87,20.52-41.64,82.33,9.99,60.34,16,144.15,45.68,144.15,17.61,0,24.74-15.26,28.31-29.2,3.57-13.94,8.8-36.04,17.61-36.3,8.8-.26,13.32,21.54,16.18,34.95,2.85,13.42,7.17,30.59,20.72,29.23,13.54-1.35,29.96-31.83,38.76-81.02,8.8-49.19,25.46-126.26-16.18-139.94-31.4-10.32-43.54,35.25-69,10.52Z"/>
            <path class="cls-10" d="M503.8,502.56c9.3-1.54,13.03-11.31,21.89-19.99,1.19-1.17,2.5-2.34,3.95-3.5-18.2,6.23-29.75,27.84-48.13,12.58,6.14,6.44,14.06,12.27,22.28,10.91Z"/>
            <path class="cls-10" d="M528.18,682.84c-17.07-5.73-9.35-57.81-31.4-70.99-16.2-9.68-31.98,7.51-45.68-4.47-6.77-5.92-4.88-11.84-11.06-34.33-11.08-40.29-24.68-48.95-19.39-65.63,4.13-13.02,15.64-19.6,19.98-22.1,8.05-4.62,16.28-5.88,23.45-5.64-7.85-3.57-17.01-5.87-25.35-4.88-26.65,3.16-51.87,20.52-41.64,82.33,9.99,60.34,16,144.15,45.68,144.15,17.61,0,24.74-15.26,28.31-29.2,3.57-13.94,8.8-36.04,17.61-36.3,8.8-.26,13.32,21.54,16.18,34.95,2.85,13.42,7.17,30.59,20.72,29.23,8.43-.84,17.41-11.05,25.36-32.02-5.53,14.57-17.52,16.64-22.77,14.88Z"/>
          </g>
          <g>
            <path class="cls-2" d="M310.54,490.49c-8.51-8.27-27.16-17.55-43.03-15.67-28.35,3.36-55.18,21.83-44.3,87.6,10.63,64.2,17.03,153.37,48.6,153.37,18.73,0,26.33-16.23,30.12-31.07,3.8-14.83,9.37-38.34,18.73-38.62,9.37-.28,14.18,22.92,17.21,37.19,3.04,14.27,7.63,32.54,22.04,31.11,14.41-1.44,31.88-33.87,41.24-86.21,9.37-52.34,27.09-134.34-17.21-148.9-33.41-10.98-46.32,37.5-73.41,11.2Z"/>
            <path class="cls-10" d="M336.74,504.35c9.9-1.64,13.87-12.04,23.29-21.27,1.27-1.24,2.66-2.49,4.21-3.73-19.36,6.63-31.65,29.62-51.21,13.39,6.54,6.85,14.96,13.06,23.71,11.61Z"/>
            <path class="cls-10" d="M362.69,696.17c-18.17-6.1-9.95-61.51-33.41-75.53-17.23-10.3-34.03,7.99-48.6-4.76-7.2-6.3-5.19-12.6-11.77-36.52-11.79-42.86-26.26-52.08-20.63-69.83,4.39-13.85,16.64-20.85,21.26-23.51,8.56-4.92,17.32-6.26,24.95-6-8.35-3.8-18.1-6.24-26.97-5.19-28.35,3.36-55.18,21.83-44.3,87.6,10.63,64.2,17.03,153.37,48.6,153.37,18.73,0,26.33-16.23,30.12-31.07,3.8-14.83,9.37-38.34,18.73-38.62,9.37-.28,14.18,22.92,17.21,37.19,3.04,14.27,7.63,32.54,22.04,31.11,8.97-.9,18.53-11.76,26.99-34.06-5.88,15.5-18.64,17.71-24.22,15.83Z"/>
          </g>
          <g>
            <g>
              <g>
                <path class="cls-12" d="M354.54,538.32l-20.47,.57c-7.1,.2-12.87,5.71-12.87,12.31v30.37c0,6.6,5.77,11.72,12.87,11.45l20.47-.8c7.02-.27,12.69-5.79,12.69-12.33v-30.09c0-6.54-5.67-11.68-12.69-11.48Z"/>
                <path class="cls-17" d="M351.04,549.35l-13.43,.4c-3.86,.12-7,3.12-7,6.72v19.2c0,3.59,3.14,6.39,7,6.25l13.43-.49c3.84-.14,6.94-3.15,6.94-6.72v-19.09c0-3.57-3.11-6.38-6.94-6.26Z"/>
              </g>
              <g>
                <path class="cls-12" d="M522.02,533.65l-19.08,.53c-6.61,.18-11.99,5.5-11.99,11.87v29.32c0,6.37,5.38,11.32,11.99,11.07l19.08-.74c6.54-.26,11.83-5.58,11.83-11.89v-29.05c0-6.31-5.29-11.28-11.83-11.1Z"/>
                <path class="cls-11" d="M518.75,544.29l-12.52,.38c-3.6,.11-6.52,3.01-6.52,6.48v18.54c0,3.47,2.92,6.17,6.52,6.04l12.52-.46c3.58-.13,6.47-3.03,6.47-6.48v-18.43c0-3.45-2.9-6.16-6.47-6.05Z"/>
              </g>
              <g>
                <path class="cls-12" d="M671.49,529.47l-17.88,.5c-6.2,.17-11.23,5.31-11.23,11.48v28.38c0,6.16,5.04,10.97,11.23,10.72l17.88-.7c6.13-.24,11.09-5.39,11.09-11.5v-28.13c0-6.11-4.96-10.93-11.09-10.75Z"/>
                <path class="cls-8" d="M668.42,539.78l-11.73,.35c-3.37,.1-6.11,2.91-6.11,6.26v17.94c0,3.36,2.74,5.98,6.11,5.85l11.73-.43c3.35-.12,6.07-2.93,6.07-6.27v-17.85c0-3.34-2.71-5.96-6.07-5.86Z"/>
              </g>
            </g>
            <g>
              <path class="cls-13" d="M358.23,538.32l-20.47,.57c-7.1,.2-12.87,5.71-12.87,12.31v30.37c0,6.6,5.77,11.72,12.87,11.45l20.47-.8c7.02-.27,12.69-5.79,12.69-12.33v-30.09c0-6.54-5.67-11.68-12.69-11.48Z"/>
              <path class="cls-18" d="M525.7,533.65l-19.08,.53c-6.61,.18-11.99,5.5-11.99,11.87v29.32c0,6.37,5.38,11.32,11.99,11.07l19.08-.74c6.54-.26,11.83-5.58,11.83-11.89v-29.05c0-6.31-5.29-11.28-11.83-11.1Z"/>
              <path class="cls-14" d="M675.17,529.47l-17.88,.5c-6.2,.17-11.23,5.31-11.23,11.48v28.38c0,6.16,5.04,10.97,11.23,10.72l17.88-.7c6.13-.24,11.09-5.39,11.09-11.5v-28.13c0-6.11-4.96-10.93-11.09-10.75Z"/>
            </g>
          </g>
        </g>
      </g>
    </g>
  </g>
</svg>