<?xml version="1.0" encoding="UTF-8"?>
<svg id="Calque_1" data-name="Calque 1" xmlns="http://www.w3.org/2000/svg" xmlns:xlink="http://www.w3.org/1999/xlink" viewBox="0 0 800 800">
  <defs>
    <style>
      .cls-1 {
        fill: #fff;
      }

      .cls-2 {
        fill: #c19f69;
      }

      .cls-3 {
        fill: url(#linear-gradient);
      }
    </style>
    <linearGradient id="linear-gradient" x1="456.35" y1="354.66" x2="408.62" y2="402.39" gradientUnits="userSpaceOnUse">
      <stop offset="0" stop-color="#aa80f9"/>
      <stop offset="1" stop-color="#6165d7"/>
    </linearGradient>
  </defs>
  <path class="cls-2" d="M674.73,531.01c-32.83,87.36-100.91,133.2-126.97,148.67-134.26,79.71-335.8,55.34-438.83-72.55-65.97-81.89-66.83-175.62-66.16-202.31,3.65-144.93,110.41-304.61,267.83-327.49,174.27-25.33,293.94,127.99,305.55,143.4,14.06,18.65,115.72,158.2,58.57,310.29Z"/>
  <path class="cls-1" d="M364.51,292.25c-12.06-11.71-38.49-24.88-60.98-22.21-40.18,4.76-78.2,30.94-62.78,124.14,15.06,90.98,24.13,217.35,68.88,217.35,26.55,0,37.31-23,42.69-44.02,5.38-21.02,13.27-54.34,26.55-54.73,13.27-.4,20.09,32.48,24.39,52.7,4.3,20.23,10.82,46.12,31.24,44.08,20.42-2.04,45.17-48,58.45-122.17,13.27-74.17,38.38-190.38-24.39-211-47.34-15.55-65.65,53.15-104.03,15.86Z"/>
  <g>
    <g>
      <path class="cls-2" d="M426.87,360.02l-29,.81c-10.06,.28-18.23,8.09-18.23,17.44v43.04c0,9.35,8.18,16.61,18.23,16.22l29-1.13c9.95-.39,17.99-8.21,17.99-17.47v-42.64c0-9.26-8.04-16.55-17.99-16.27Z"/>
      <path class="cls-3" d="M421.9,375.65l-19.03,.57c-5.48,.17-9.92,4.43-9.92,9.52v27.21c0,5.09,4.45,9.05,9.92,8.85l19.03-.7c5.44-.2,9.84-4.47,9.84-9.53v-27.06c0-5.06-4.4-9.03-9.84-8.87Z"/>
    </g>
    <path class="cls-2" d="M432.09,360.02l-29,.81c-10.06,.28-18.23,8.09-18.23,17.44v43.04c0,9.35,8.18,16.61,18.23,16.22l29-1.13c9.95-.39,17.99-8.21,17.99-17.47v-42.64c0-9.26-8.04-16.55-17.99-16.27Z"/>
  </g>
</svg>