<?xml version="1.0" encoding="UTF-8"?>
<svg id="Calque_1" data-name="Calque 1" xmlns="http://www.w3.org/2000/svg" xmlns:xlink="http://www.w3.org/1999/xlink" viewBox="0 0 800 800">
  <defs>
    <style>
      .cls-1 {
        fill: url(#linear-gradient-2);
      }

      .cls-2 {
        fill: #fff;
      }

      .cls-3 {
        fill: #d8dee8;
      }

      .cls-4 {
        fill: #c19f69;
      }

      .cls-5 {
        fill: url(#linear-gradient-3);
      }

      .cls-6 {
        fill: url(#linear-gradient);
      }
    </style>
    <linearGradient id="linear-gradient" x1="265.53" y1="374.98" x2="231.85" y2="408.66" gradientUnits="userSpaceOnUse">
      <stop offset="0" stop-color="#aa80f9"/>
      <stop offset="1" stop-color="#6165d7"/>
    </linearGradient>
    <linearGradient id="linear-gradient-2" x1="432.15" y1="370.91" x2="400.16" y2="402.9" xlink:href="#linear-gradient"/>
    <linearGradient id="linear-gradient-3" x1="580.86" y1="367.25" x2="550.34" y2="397.77" xlink:href="#linear-gradient"/>
  </defs>
  <path class="cls-4" d="M688.94,537.84c-32.83,87.36-100.91,133.2-126.97,148.67-134.26,79.71-335.8,55.34-438.83-72.55-65.97-81.89-66.83-175.62-66.16-202.31,3.65-144.93,110.41-304.61,267.83-327.49,174.27-25.33,293.94,127.99,305.55,143.4,14.06,18.65,115.72,158.2,58.57,310.29Z"/>
  <g>
    <path class="cls-2" d="M524.33,322.57c-7.46-7.25-23.81-15.39-37.73-13.74-24.86,2.94-48.38,19.14-38.84,76.8,9.32,56.29,14.93,134.46,42.61,134.46,16.42,0,23.08-14.23,26.41-27.24,3.33-13,8.21-33.61,16.42-33.86,8.21-.25,12.43,20.09,15.09,32.6,2.66,12.51,6.69,28.53,19.32,27.27,12.63-1.26,27.95-29.69,36.16-75.58,8.21-45.88,23.75-117.77-15.09-130.53-29.29-9.62-40.61,32.88-64.36,9.81Z"/>
    <path class="cls-3" d="M547.3,334.71c8.68-1.44,12.16-10.55,20.42-18.65,1.11-1.09,2.34-2.19,3.69-3.27-16.98,5.81-27.75,25.97-44.89,11.74,5.73,6,13.11,11.45,20.79,10.18Z"/>
    <path class="cls-3" d="M570.04,502.88c-15.92-5.35-8.72-53.92-29.29-66.22-15.11-9.03-29.83,7.01-42.61-4.17-6.32-5.52-4.55-11.04-10.32-32.02-10.33-37.58-23.02-45.66-18.09-61.22,3.85-12.14,14.59-18.28,18.64-20.61,7.51-4.31,15.18-5.48,21.87-5.26-7.32-3.33-15.87-5.47-23.65-4.55-24.86,2.94-48.38,19.14-38.84,76.8,9.32,56.29,14.93,134.46,42.61,134.46,16.42,0,23.08-14.23,26.41-27.24,3.33-13,8.21-33.61,16.42-33.86,8.21-.25,12.43,20.09,15.09,32.6,2.66,12.51,6.69,28.53,19.32,27.27,7.86-.79,16.24-10.31,23.66-29.86-5.16,13.59-16.34,15.52-21.24,13.88Z"/>
  </g>
  <g>
    <path class="cls-2" d="M369.36,329.98c-8-7.77-25.53-16.5-40.45-14.73-26.65,3.16-51.87,20.52-41.64,82.33,9.99,60.34,16,144.15,45.68,144.15,17.61,0,24.74-15.26,28.31-29.2,3.57-13.94,8.8-36.04,17.61-36.3,8.8-.26,13.32,21.54,16.18,34.95,2.85,13.42,7.17,30.59,20.72,29.23,13.54-1.35,29.96-31.83,38.76-81.02,8.8-49.19,25.46-126.26-16.18-139.94-31.4-10.32-43.54,35.25-69,10.52Z"/>
    <path class="cls-3" d="M393.98,343c9.3-1.54,13.03-11.31,21.89-19.99,1.19-1.17,2.5-2.34,3.95-3.5-18.2,6.23-29.75,27.84-48.13,12.58,6.14,6.44,14.06,12.27,22.28,10.91Z"/>
    <path class="cls-3" d="M418.37,523.29c-17.07-5.73-9.35-57.81-31.4-70.99-16.2-9.68-31.98,7.51-45.68-4.47-6.77-5.92-4.88-11.84-11.06-34.33-11.08-40.29-24.68-48.95-19.39-65.63,4.13-13.02,15.64-19.6,19.98-22.1,8.05-4.62,16.28-5.88,23.45-5.64-7.85-3.57-17.01-5.87-25.35-4.88-26.65,3.16-51.87,20.52-41.64,82.33,9.99,60.34,16,144.15,45.68,144.15,17.61,0,24.74-15.26,28.31-29.2,3.57-13.94,8.8-36.04,17.61-36.3,8.8-.26,13.32,21.54,16.18,34.95,2.85,13.42,7.17,30.59,20.72,29.23,8.43-.84,17.41-11.05,25.36-32.02-5.53,14.57-17.52,16.64-22.77,14.88Z"/>
  </g>
  <path class="cls-2" d="M200.73,330.94c-8.51-8.27-27.16-17.55-43.03-15.67-28.35,3.36-55.18,21.83-44.3,87.6,10.63,64.2,17.03,153.37,48.6,153.37,18.73,0,26.33-16.23,30.12-31.07,3.8-14.83,9.37-38.34,18.73-38.62,9.37-.28,14.18,22.92,17.21,37.19,3.04,14.27,7.63,32.54,22.04,31.11,14.41-1.44,31.88-33.87,41.24-86.21,9.37-52.34,27.09-134.34-17.21-148.9-33.41-10.98-46.32,37.5-73.41,11.2Z"/>
  <path class="cls-3" d="M312.23,517.48c9.9-1.64,13.87-12.04,23.29-21.27,1.27-1.24,2.66-2.49,4.21-3.73-19.36,6.63-31.65,29.62-51.21,13.39,6.54,6.85,14.96,13.06,23.71,11.61Z"/>
  <path class="cls-3" d="M252.88,536.62c-18.17-6.1-9.95-61.51-33.41-75.53-17.23-10.3-34.03,7.99-48.6-4.76-7.2-6.3-5.19-12.6-11.77-36.52-11.79-42.86-26.26-52.08-20.63-69.83,4.39-13.85,16.64-20.85,21.26-23.51,8.56-4.92,17.32-6.26,24.95-6-8.35-3.8-18.1-6.24-26.97-5.19-28.35,3.36-55.18,21.83-44.3,87.6,10.63,64.2,17.03,153.37,48.6,153.37,18.73,0,26.33-16.23,30.12-31.07,3.8-14.83,9.37-38.34,18.73-38.62,9.37-.28,14.18,22.92,17.21,37.19,3.04,14.27,7.63,32.54,22.04,31.11,8.97-.9,18.53-11.76,26.99-34.06-5.88,15.5-18.64,17.71-24.22,15.83Z"/>
  <g>
    <g>
      <g>
        <path class="cls-4" d="M244.73,378.77l-20.47,.57c-7.1,.2-12.87,5.71-12.87,12.31v30.37c0,6.6,5.77,11.72,12.87,11.45l20.47-.8c7.02-.27,12.69-5.79,12.69-12.33v-30.09c0-6.54-5.67-11.68-12.69-11.48Z"/>
        <path class="cls-6" d="M241.22,389.79l-13.43,.4c-3.86,.12-7,3.12-7,6.72v19.2c0,3.59,3.14,6.39,7,6.25l13.43-.49c3.84-.14,6.94-3.15,6.94-6.72v-19.09c0-3.57-3.11-6.38-6.94-6.26Z"/>
      </g>
      <g>
        <path class="cls-4" d="M412.21,374.09l-19.08,.53c-6.61,.18-11.99,5.5-11.99,11.87v29.32c0,6.37,5.38,11.32,11.99,11.07l19.08-.74c6.54-.26,11.83-5.58,11.83-11.89v-29.05c0-6.31-5.29-11.28-11.83-11.1Z"/>
        <path class="cls-1" d="M408.94,384.74l-12.52,.38c-3.6,.11-6.52,3.01-6.52,6.48v18.54c0,3.47,2.92,6.17,6.52,6.04l12.52-.46c3.58-.13,6.47-3.03,6.47-6.48v-18.43c0-3.45-2.9-6.16-6.47-6.05Z"/>
      </g>
      <g>
        <path class="cls-4" d="M561.67,369.92l-17.88,.5c-6.2,.17-11.23,5.31-11.23,11.48v28.38c0,6.16,5.04,10.97,11.23,10.72l17.88-.7c6.13-.24,11.09-5.39,11.09-11.5v-28.13c0-6.11-4.96-10.93-11.09-10.75Z"/>
        <path class="cls-5" d="M558.61,380.22l-11.73,.35c-3.37,.1-6.11,2.91-6.11,6.26v17.94c0,3.36,2.74,5.98,6.11,5.85l11.73-.43c3.35-.12,6.07-2.93,6.07-6.27v-17.85c0-3.34-2.71-5.96-6.07-5.86Z"/>
      </g>
    </g>
    <g>
      <path class="cls-4" d="M248.41,378.77l-20.47,.57c-7.1,.2-12.87,5.71-12.87,12.31v30.37c0,6.6,5.77,11.72,12.87,11.45l20.47-.8c7.02-.27,12.69-5.79,12.69-12.33v-30.09c0-6.54-5.67-11.68-12.69-11.48Z"/>
      <path class="cls-4" d="M415.89,374.09l-19.08,.53c-6.61,.18-11.99,5.5-11.99,11.87v29.32c0,6.37,5.38,11.32,11.99,11.07l19.08-.74c6.54-.26,11.83-5.58,11.83-11.89v-29.05c0-6.31-5.29-11.28-11.83-11.1Z"/>
      <path class="cls-4" d="M565.35,369.92l-17.88,.5c-6.2,.17-11.23,5.31-11.23,11.48v28.38c0,6.16,5.04,10.97,11.23,10.72l17.88-.7c6.13-.24,11.09-5.39,11.09-11.5v-28.13c0-6.11-4.96-10.93-11.09-10.75Z"/>
    </g>
  </g>
</svg>