<svg xmlns="http://www.w3.org/2000/svg" xmlns:xlink="http://www.w3.org/1999/xlink" id="Layer_1" data-name="Layer 1" viewBox="0 0 667.08 276.52">
  <defs>
    <style>.cls-1{fill:none;}.cls-2{fill:url(#linear-gradient);}</style>
    <linearGradient id="linear-gradient" x1="39.98" y1="234.47" x2="228.57" y2="45.88" gradientUnits="userSpaceOnUse">
      <stop offset="0" stop-color="#ad946f"/>
      <stop offset="1" stop-color="#f0e8ce"/>
    </linearGradient>
  </defs>
  <rect class="cls-1" width="667.08" height="276.52"/>
  <path class="cls-2" d="M213.91,104.08c9.46-23.06,16.26-75-9.71-77-27.37-2.07-48.44,24.57-79.64,26.45-3.56.21,8.76,5.44,13,5.92,8.29.93,14.81-2.4,18.67-4.24,14.57-6.94,33.22-14.56,40.91-8.91,10.7,7.87,9.11,27.79,5,45.56-5.29,23-19.8,56.38-37.71,60-8.23,1.64-15.35-6.81-15.77-6.14-.52.82,9.16,12.08,20.2,12.82a19,19,0,0,0,7.83-1.13c-.11,7.11,2.73,12.73,4.38,16.19,6.94,14.57,14.56,33.22,8.91,40.91-7.87,10.7-27.93,9.66-45.56,5-21.78-5.73-27.36-1.41-35.6,1.6-15.15,5.53-33.21,14.56-40.9,8.9-10.7-7.86-9.07-27.78-5-45.55,3.06-13.42,10.32-26.14,8.41-39-2.38-16-26.45-39.95-23.31-49C52.35,84,71.86,79.64,90,78.32c23.53-1.71,59.71,2.33,68.41,18.4,4,7.38-2,16.67-1.22,16.88.93.26,8.85-12.31,6.31-23.08-4.89-20.76-43.12-25-65.32-27C73.4,61.21,21.76,70,27.52,95.39c4.51,19.87,25.2,27.2,33.17,48.84,4,11.3-3.64,29.07-6.36,38.06-7.24,23.85-19.49,65,6.48,67,21.54,1.63,39.25-20.36,60.93-22.39,8.4-1,16.21,2,20,2.94,24.12,6.28,65.53,17.76,67.49-8.21,1.82-24-18.5-43.22-24.75-68.66C197.74,142.38,207.68,119.26,213.91,104.08Z"/>
  <path d="M278,175.28l-14.28-19.12h-8.88v19.12h-5.41V128.17h18.07q7.38,0,11.42,3.88a13.53,13.53,0,0,1,4,10.21,13.35,13.35,0,0,1-3.36,9.4q-3.36,3.65-9.49,4.37l14.62,19.25Zm-23.16-42v18H267q5.22,0,7.86-2.51a8.63,8.63,0,0,0,2.64-6.56,8.42,8.42,0,0,0-2.67-6.46q-2.69-2.48-7.83-2.48Z"/>
  <path d="M313.38,138q8.36,0,13.31,5.68t4.63,14.62H300.59a12.36,12.36,0,0,0,4,8.74,13.14,13.14,0,0,0,9.07,3.2q8,0,11.22-6.27h5.61a17.37,17.37,0,0,1-6.72,8.45,18.57,18.57,0,0,1-10.31,2.91A17.77,17.77,0,0,1,295,156.75a18.58,18.58,0,0,1,5.16-13.48A17.57,17.57,0,0,1,313.38,138Zm0,5.09a12.36,12.36,0,0,0-8.19,2.81,12.75,12.75,0,0,0-4.34,7.31h24.6a12.68,12.68,0,0,0-4.11-7.34A11.72,11.72,0,0,0,313.38,143Z"/>
  <path d="M374.91,138.67h5.41v35.89h-5.41v-7.24a16,16,0,0,1-5.71,5.83A16.46,16.46,0,0,1,349,170q-4.74-5.25-4.73-13.41t4.73-13.4A15.89,15.89,0,0,1,374.91,146Zm-12.79,31.45a12.2,12.2,0,0,0,9.2-3.82,14.67,14.67,0,0,0,0-19.37,12.2,12.2,0,0,0-9.2-3.82,11.39,11.39,0,0,0-8.91,3.82,15.43,15.43,0,0,0,0,19.41A11.51,11.51,0,0,0,362.12,170.12Z"/>
  <path d="M396.7,175.28V128.17h5.41v47.11Z"/>
  <path d="M461,148.72q4.69,1,7.4,1.89a26,26,0,0,1,5.25,2.32,8.83,8.83,0,0,1,3.63,3.62,11.87,11.87,0,0,1,1.07,5.29q0,6.58-4.83,10a20,20,0,0,1-11.87,3.43q-8.61,0-13.41-4a17.08,17.08,0,0,1-6-10.44h5.48q2.28,9.33,13.77,9.33c3.56,0,6.35-.71,8.35-2.12a7,7,0,0,0,3-6,5.06,5.06,0,0,0-2.74-4.89q-2.75-1.44-10.37-3.13c-2.75-.61-5-1.2-6.69-1.77a24.81,24.81,0,0,1-5-2.25,8.86,8.86,0,0,1-3.49-3.52,10.77,10.77,0,0,1-1.11-5.06,11.46,11.46,0,0,1,4.73-9.72,18.92,18.92,0,0,1,11.65-3.52q7.63,0,12.07,3.33a15,15,0,0,1,5.74,8.8h-5.48q-2.74-7-12.27-7a13.38,13.38,0,0,0-8.06,2.18,7,7,0,0,0-3,6,4.59,4.59,0,0,0,2.52,4.24Q453.92,147.09,461,148.72Z"/>
  <path d="M534.24,138.67q5.67,0,8.8,3.49t3.14,9.82v23.3h-5.42V153q0-9.14-8.09-9.13a8.67,8.67,0,0,0-7.5,3.65,15.8,15.8,0,0,0-2.61,9.4l.06,18.4h-5.48V153q0-9.14-8.09-9.13a8.61,8.61,0,0,0-7.44,3.65,15.8,15.8,0,0,0-2.61,9.4v18.4h-5.41V139.39H499v6.79q3.79-7.5,11.68-7.51a11.86,11.86,0,0,1,7.24,2.12,11,11,0,0,1,4,6.1Q525.69,138.67,534.24,138.67Z"/>
  <path d="M562,175.28V139.39h5.42v35.89Z"/>
  <path d="M562.06,129.25a3.94,3.94,0,0,1,5.42,0,3.58,3.58,0,0,1,1.07,2.63,3.83,3.83,0,0,1-6.49,2.71,3.72,3.72,0,0,1-1.07-2.71A3.61,3.61,0,0,1,562.06,129.25Z"/>
  <path d="M583.76,175.28V128.17h5.41v47.11Z"/>
  <path d="M622.06,138q8.34,0,13.31,5.68T640,158.25H609.27a12.36,12.36,0,0,0,4,8.74,13.12,13.12,0,0,0,9.07,3.2q8,0,11.22-6.27h5.61a17.37,17.37,0,0,1-6.72,8.45,18.57,18.57,0,0,1-10.31,2.91,17.77,17.77,0,0,1-18.4-18.53,18.58,18.58,0,0,1,5.16-13.48A17.57,17.57,0,0,1,622.06,138Zm0,5.09a12.36,12.36,0,0,0-8.19,2.81,12.75,12.75,0,0,0-4.34,7.31h24.6a12.68,12.68,0,0,0-4.11-7.34A11.72,11.72,0,0,0,622.06,143Z"/>
  <path d="M476.57,204.79a6.64,6.64,0,0,1,4.78,1.68,5.82,5.82,0,0,1,1.75,4.43,6,6,0,0,1-1.77,4.48,6.53,6.53,0,0,1-4.76,1.71h-4.63v6.3h-3v-18.6Zm-.11,9.43a3.65,3.65,0,0,0,2.67-.9,3.57,3.57,0,0,0,0-4.77,3.67,3.67,0,0,0-2.68-.89h-4.52v6.56Z"/>
  <path d="M523.5,208.46h3v14.61h-3v-2.45a5.69,5.69,0,0,1-5.1,2.77,6.22,6.22,0,0,1-4.85-2.14,8,8,0,0,1-1.9-5.49,7.92,7.92,0,0,1,1.92-5.47,6.15,6.15,0,0,1,4.8-2.15A5.72,5.72,0,0,1,523.5,211ZM519,220.52a4.25,4.25,0,0,0,3.21-1.33,5.21,5.21,0,0,0,0-6.84A4.26,4.26,0,0,0,519,211a4.07,4.07,0,0,0-3.14,1.33,5.42,5.42,0,0,0,0,6.85A4.07,4.07,0,0,0,519,220.52Z"/>
  <path d="M564.43,208.46a4.06,4.06,0,0,1,.88.08v3.05c-.36,0-.66-.05-.91-.05a4.8,4.8,0,0,0-3.5,1.29,5.12,5.12,0,0,0-1.33,3.86v6.7h-3V208.78h3v2.89A4.9,4.9,0,0,1,564.43,208.46Z"/>
  <path d="M595.74,202.19a2,2,0,0,1,1.41.52,1.71,1.71,0,0,1,.56,1.31,1.82,1.82,0,0,1-.56,1.36,2,2,0,0,1-1.41.53,2,2,0,0,1-1.38-.53,1.81,1.81,0,0,1-.55-1.36,1.7,1.7,0,0,1,.55-1.31A1.94,1.94,0,0,1,595.74,202.19Zm-1.48,21.2V208.78h3v14.61Z"/>
  <path d="M633.75,223.39a8.35,8.35,0,0,1-4.82-1.33,5.5,5.5,0,0,1-2.35-3.69h3.06a2.89,2.89,0,0,0,1.32,1.79,5.77,5.77,0,0,0,2.84.57,5,5,0,0,0,2.3-.44,1.35,1.35,0,0,0,.84-1.23,1.1,1.1,0,0,0-.41-.88,2.77,2.77,0,0,0-1-.51l-1.77-.45-.69-.16a15.11,15.11,0,0,1-4.54-1.66,2.92,2.92,0,0,1-1.27-2.61,4,4,0,0,1,1.68-3.42,7.45,7.45,0,0,1,4.48-1.23,7.16,7.16,0,0,1,4.34,1.18,5.16,5.16,0,0,1,2,3.26h-3c-.43-1.19-1.56-1.78-3.4-1.78a4.74,4.74,0,0,0-2.26.45,1.36,1.36,0,0,0-.82,1.22,1,1,0,0,0,.66,1,19,19,0,0,0,2.79.81q1.38.31,2.19.54a13.83,13.83,0,0,1,1.69.6,4.85,4.85,0,0,1,1.33.8,3.59,3.59,0,0,1,.74,1.05,3.47,3.47,0,0,1,.29,1.47,4,4,0,0,1-1.77,3.47A7.81,7.81,0,0,1,633.75,223.39Z"/>
  <path d="M641.56,129.7a5.26,5.26,0,1,1-1.54,3.72A5.06,5.06,0,0,1,641.56,129.7Zm.54,6.9a4.49,4.49,0,1,0-1.32-3.18A4.32,4.32,0,0,0,642.1,136.6Zm5.39-4.15a1.64,1.64,0,0,1-.39,1.11,1.73,1.73,0,0,1-1.11.54l1.67,2.08h-1.1l-1.62-2.06h-.72v2.06h-.89v-5.41h2.41a1.75,1.75,0,0,1,1.31.46A1.71,1.71,0,0,1,647.49,132.45Zm-3.27-.9v1.85h1.27c.72,0,1.09-.31,1.09-.93a.91.91,0,0,0-.25-.69,1.22,1.22,0,0,0-.84-.23Z"/>
</svg>